<svg width="400" height="20" viewBox="0 0 400 20" fill="none" xmlns="http://www.w3.org/2000/svg">
<g clip-path="url(#clip0_208_86)">
<path opacity="0.8" d="M0 10L14 4L28 14L42 2L56 12L70 5L84 15L98 3L112 11L126 6L140 16L154 2L168 13L182 5L196 10L210 4L224 14L238 2L252 12L266 5L280 15L294 3L308 11L322 6L336 16L350 2L364 13L378 5L392 10L400 8" stroke="#F2661F" stroke-width="1.4" stroke-linejoin="round"/>
</g>
<defs>
<clipPath id="clip0_208_86">
<rect width="400" height="20" fill="white"/>
</clipPath>
</defs>
</svg>
